<?xml version="1.0" encoding="UTF-8" standalone="no"?>
<svg
   xmlns:dc="http://purl.org/dc/elements/1.1/"
   xmlns:cc="http://creativecommons.org/ns#"
   xmlns:rdf="http://www.w3.org/1999/02/22-rdf-syntax-ns#"
   xmlns:svg="http://www.w3.org/2000/svg"
   xmlns="http://www.w3.org/2000/svg"
   width="59.198547mm"
   height="9.9350414mm"
   viewBox="0 0 59.198547 9.9350414"
   version="1.1"
   id="svg8">
  <defs
     id="defs2">
    <clipPath
       clipPathUnits="userSpaceOnUse"
       id="clipPath885">
      <g
         id="use887">
        <path
           style="fill:#e6e6e6;stroke-width:1"
           d="m 23.553895,170.90416 c -0.218213,-0.81038 -0.224973,-1.30761 -0.02379,-1.74918 0.273182,-0.59957 0.376753,-0.61693 3.678108,-0.61693 3.240952,0 3.517738,-0.0439 6.024943,-0.9557 8.177795,-2.97399 10.008254,-3.41795 12.773097,-3.09799 1.157843,0.13399 1.788075,0.43203 3.47985,1.64564 2.148184,1.541 5.996879,4.7893 5.674537,4.7893 -0.101652,0 -0.984715,-0.593 -1.962361,-1.31775 -0.977644,-0.72476 -2.563604,-1.68559 -3.524351,-2.13518 -3.147211,-1.47276 -4.961059,-1.18706 -14.342004,2.25892 -2.950242,1.08375 -6.381451,1.85797 -9.440744,2.13023 l -2.032407,0.18088 z m 42.513796,0.89707 c -0.316386,-0.31637 -0.185441,-2.13255 0.17535,-2.43198 0.218308,-0.18118 1.49796,-0.27601 3.373435,-0.24999 3.415649,0.0474 3.50357,0.0261 9.975824,-2.41375 5.613868,-2.11625 7.446139,-2.46935 9.645039,-1.85867 1.046271,0.29056 5.25753,3.35105 7.477921,5.4345 1.52948,1.43516 1.342401,1.328 -1.719792,-0.98501 -5.002958,-3.77896 -6.744927,-3.8442 -15.08125,-0.56486 -3.863787,1.51993 -5.630963,2.07936 -8.598958,2.72215 -2.374117,0.51417 -4.912841,0.68234 -5.247569,0.34761 z m 43.891739,-0.94083 c -0.52869,-0.75482 -0.5229,-1.3717 0.0171,-1.81985 0.31867,-0.26446 1.24184,-0.33713 3.59044,-0.28258 3.49163,0.0811 3.3858,0.10426 8.94518,-1.95832 5.02805,-1.86547 6.53762,-2.23038 9.22661,-2.23038 1.94251,0 2.39573,0.0927 3.45014,0.70534 1.92843,1.12055 7.43158,5.55874 7.43158,5.99342 0,0.0746 -1.22595,-0.77702 -2.72433,-1.8925 -4.04842,-3.01385 -5.38598,-3.6176 -7.9913,-3.60711 -2.29073,0.009 -3.32183,0.32175 -9.78958,2.96714 -3.77729,1.54498 -5.79674,2.09416 -8.99583,2.44636 -1.30969,0.1442 -2.4638,0.26316 -2.56469,0.26435 -0.10089,0.001 -0.36878,-0.26244 -0.59531,-0.58587 z M 23.194167,148.13205 c -0.500515,-2.50258 -0.07379,-3.19219 2.762547,-4.46446 5.717997,-2.56485 11.417649,-3.97164 16.065325,-3.96522 5.110009,0.007 8.474489,1.25182 11.464077,4.2414 0.968436,0.96843 1.901854,2.02438 2.07427,2.34654 0.272333,0.50887 0.05649,0.4447 -1.644597,-0.48891 -2.813751,-1.54429 -5.386093,-2.13437 -9.299622,-2.13335 -5.183968,0.001 -10.10694,1.10415 -17.099698,3.83043 -2.060225,0.80321 -3.838358,1.46039 -3.951401,1.46039 -0.113046,0 -0.27995,-0.37207 -0.370901,-0.82682 z m 41.823422,-0.13508 c -0.250206,-0.2502 -0.227065,-2.00121 0.03184,-2.40887 0.502587,-0.79135 7.628578,-3.11304 12.372999,-4.03117 8.726771,-1.68882 15.31634,-0.60969 20.01566,3.27782 0.543092,0.44926 0.989571,0.89301 0.992191,0.98613 0.003,0.0931 -0.9397,-0.23904 -2.094058,-0.73812 -3.015142,-1.30358 -5.383821,-1.7421 -9.410542,-1.74224 -3.798239,-1.1e-4 -7.061811,0.45773 -11.755498,1.64917 -2.533645,0.64313 -7.912754,2.3443 -9.557277,3.02252 -0.225885,0.0932 -0.493773,0.0863 -0.595312,-0.0152 z m 42.590031,-1.72675 c -0.28272,-1.08112 0.25998,-1.47024 3.59063,-2.57455 12.73825,-4.2235 23.0614,-4.2708 29.52528,-0.13526 1.05661,0.67601 1.87493,1.27529 1.81849,1.33173 -0.0564,0.0564 -0.86555,-0.23959 -1.79802,-0.65785 -8.21672,-3.68559 -18.30092,-3.11441 -30.3698,1.72016 -1.21884,0.48825 -2.30628,0.88772 -2.41654,0.88772 -0.11026,0 -0.26778,-0.25739 -0.35004,-0.57195 z M 22.635439,122.50621 c -0.106127,-0.17172 -0.111647,-1.07148 -0.01228,-1.99948 0.133395,-1.24565 0.296696,-1.72171 0.623888,-1.81877 2.822712,-0.83748 8.193148,-1.70176 12.476482,-2.00788 5.803866,-0.41479 11.076144,0.25445 15.151713,1.92329 1.878333,0.76912 5.128562,2.55429 4.677752,2.56921 -0.08351,0.003 -1.393198,-0.18239 -2.910417,-0.41148 -6.640893,-1.00272 -18.92473,-0.20371 -28.986389,1.88545 -0.52237,0.10845 -0.899004,0.0567 -1.020766,-0.14034 z m 41.793119,-1.34077 c -0.09408,-0.15224 -0.09093,-0.85938 0.007,-1.57146 0.200916,-1.46082 -0.113941,-1.30362 3.969281,-1.9818 8.795949,-1.46092 17.010928,-1.49599 23.01875,-0.0983 2.38986,0.556 7.14361,2.29686 6.90998,2.53048 -0.0686,0.0686 -1.234741,-0.0258 -2.59135,-0.20993 -5.568021,-0.75565 -17.419632,-0.28051 -27.321267,1.09531 -2.028436,0.28185 -3.718052,0.51245 -3.754704,0.51245 -0.03666,0 -0.143621,-0.12455 -0.237702,-0.27677 z m 41.943992,-2.0035 c 0,-0.69827 0.13742,-0.95986 0.59532,-1.13326 1.29743,-0.49131 11.08105,-1.15321 16.99947,-1.1501 6.75749,0.004 11.44418,0.45926 15.34584,1.49202 l 2.38125,0.63033 -3.83646,-0.10909 c -2.11006,-0.06 -4.47671,-0.15852 -5.25922,-0.21893 -3.04681,-0.23523 -23.4769,0.79164 -25.76318,1.29492 -0.37081,0.0816 -0.46302,-0.0789 -0.46302,-0.80589 z M 22.924819,100.3862 c -0.263546,-0.686795 -0.182457,-2.419035 0.147095,-3.142327 0.200684,-0.440459 0.637773,-0.761597 1.256771,-0.923398 9.009152,-2.354911 18.388092,-4.24702 21.051951,-4.24702 2.031847,0 2.925252,0.47027 6.212717,3.270268 1.390759,1.184532 2.884789,2.420541 3.320071,2.746701 0.455957,0.34164 -0.386159,0.0456 -1.986706,-0.69832 -4.004102,-1.86118 -4.996586,-2.143649 -7.53199,-2.143649 -2.62391,0 -5.986846,0.802539 -12.576342,3.001251 -4.733573,1.579438 -8.227121,2.555004 -9.149649,2.555004 -0.320826,0 -0.65559,-0.18834 -0.743918,-0.41851 z m 41.581553,-2.425845 c -0.200036,-1.655242 0.20207,-2.36382 1.604256,-2.826941 3.013789,-0.995429 16.036451,-3.408569 20.173881,-3.738279 1.946101,-0.155081 2.438929,-0.105781 3.460779,0.346228 1.191721,0.527161 8.42518,5.250431 8.42518,5.501442 0,0.0731 -0.466119,-0.10481 -1.035827,-0.395449 -1.434971,-0.732063 -5.728521,-2.313252 -7.166251,-2.639111 -0.654851,-0.14841 -1.688721,-0.272761 -2.297491,-0.27632 -1.826289,-0.01069 -7.80548,1.208699 -13.709806,2.79591 -4.882171,1.31244 -8.640482,2.22471 -9.165224,2.22471 -0.09327,0 -0.22355,-0.44649 -0.289497,-0.99219 z m 42.279738,-0.799111 c -0.21605,-0.216051 -0.17517,-1.46205 0.0601,-1.832128 0.32466,-0.510681 14.98022,-3.071112 21.61904,-3.777002 2.20805,-0.23478 2.9085,-0.21268 4.23333,0.133541 1.39849,0.365458 7.81047,3.476591 8.43903,4.09466 0.13031,0.128148 -1.00077,-0.27786 -2.51354,-0.90224 -5.21809,-2.153721 -5.29502,-2.155002 -15.58278,-0.259342 -11.35428,2.092182 -15.98173,2.815971 -16.25519,2.542511 z M 22.669348,77.681774 c -0.204161,-1.7371 0.02471,-3.02902 0.595172,-3.35965 0.234159,-0.13571 3.30998,-1.66171 6.835159,-3.39109 12.176476,-5.97354 14.957708,-6.457003 18.69886,-3.25043 1.773168,1.5198 7.567765,7.8918 7.567765,8.32185 0,0.31653 -1.083381,-0.49712 -3.414022,-2.56402 -1.077346,-0.95544 -2.673942,-2.09451 -3.547988,-2.53128 -1.398417,-0.69879 -1.863962,-0.79412 -3.878338,-0.79412 -2.639351,0 -5.344028,0.62783 -8.737412,2.02821 -2.805674,1.15784 -7.588195,3.56004 -10.938897,5.49449 -1.403416,0.81022 -2.655371,1.47314 -2.78212,1.47314 -0.126749,0 -0.30593,-0.6422 -0.398179,-1.4271 z m 41.912951,-1.94634 c -0.587621,-2.11592 -0.263321,-2.99386 1.382779,-3.74348 8.921004,-4.06251 15.601903,-6.26759 20.904912,-6.89982 2.544821,-0.30339 2.609638,-0.29736 3.704489,0.34426 1.198952,0.70263 7.839541,7.34769 8.3976,8.40326 0.185812,0.35145 -0.915469,-0.56524 -2.4473,-2.0371 -3.36866,-3.23679 -4.921661,-4.09627 -7.72686,-4.2763 -4.56682,-0.29308 -11.879041,2.37928 -21.14027,7.72601 -1.405527,0.81145 -2.610469,1.47536 -2.677652,1.47536 -0.06719,0 -0.246147,-0.44649 -0.397698,-0.99219 z m 42.231231,-1.83004 c -0.23988,-0.23987 -0.2159,-1.46847 0.0364,-1.86555 0.42401,-0.6673 8.08786,-3.89967 13.01011,-5.48726 4.06657,-1.3116 7.26588,-1.97383 10.45729,-2.164582 l 2.64583,-0.158141 1.5875,1.075963 c 1.95564,1.32547 7.0985,6.32659 7.93636,7.71763 0.39475,0.65538 -1.7144,-1.04435 -3.893,-3.13728 -3.51695,-3.37868 -5.00942,-4.07712 -8.67356,-4.05901 -4.11529,0.0203 -9.41647,1.77757 -18.20782,6.03552 -5.07306,2.45705 -4.6579,2.28394 -4.89912,2.04271 z"
           id="path909"
           clip-path="none" />
        <path
           style="fill:#e6e6e6;stroke-width:1"
           d="m 8.1568488,172.94799 c 0.21821,-0.81038 0.22497,-1.30761 0.0238,-1.74918 -0.27319,-0.59957 -0.37676,-0.61693 -3.67811,-0.61693 -3.24095,0 -3.51774004,-0.0439 -6.02494,-0.9557 -8.1778,-2.97399 -10.0082588,-3.41795 -12.7731018,-3.09799 -1.157843,0.13399 -1.788075,0.43203 -3.47985,1.64564 -2.148184,1.541 -5.996879,4.7893 -5.674537,4.7893 0.101652,0 0.984715,-0.593 1.962361,-1.31775 0.977644,-0.72476 2.563604,-1.68559 3.524351,-2.13518 3.147211,-1.47276 4.961059,-1.18706 14.3420038,2.25892 2.95024296,1.08375 6.381453,1.85797 9.440743,2.13023 l 2.03241,0.18088 z m -42.5137998,0.89707 c 0.316386,-0.31637 0.185441,-2.13255 -0.17535,-2.43198 -0.218308,-0.18118 -1.49796,-0.27601 -3.373435,-0.24999 -3.415649,0.0474 -3.50357,0.0261 -9.975824,-2.41375 -5.613868,-2.11625 -7.446139,-2.46935 -9.645039,-1.85867 -1.046271,0.29056 -5.25753,3.35105 -7.477921,5.4345 -1.52948,1.43516 -1.342401,1.328 1.719792,-0.98501 5.002958,-3.77896 6.744927,-3.8442 15.08125,-0.56486 3.863787,1.51993 5.630963,2.07936 8.598958,2.72215 2.374117,0.51417 4.912841,0.68234 5.247569,0.34761 z m -43.891739,-0.94083 c 0.52869,-0.75482 0.5229,-1.3717 -0.0171,-1.81985 -0.31867,-0.26446 -1.24184,-0.33713 -3.59044,-0.28258 -3.49163,0.0811 -3.3858,0.10426 -8.94518,-1.95832 -5.02805,-1.86547 -6.53762,-2.23038 -9.22661,-2.23038 -1.94251,0 -2.39573,0.0927 -3.45014,0.70534 -1.92843,1.12055 -7.43158,5.55874 -7.43158,5.99342 0,0.0746 1.22595,-0.77702 2.72433,-1.8925 4.04842,-3.01385 5.38598,-3.6176 7.9913,-3.60711 2.29073,0.009 3.32183,0.32175 9.78958,2.96714 3.77729,1.54498 5.79674,2.09416 8.99583,2.44636 1.30969,0.1442 2.4638,0.26316 2.56469,0.26435 0.10089,10e-4 0.36878,-0.26244 0.59531,-0.58587 z M 8.5165688,150.17588 c 0.50052,-2.50258 0.0738,-3.19219 -2.76254,-4.46446 -5.71800004,-2.56485 -11.417652,-3.97164 -16.0653278,-3.96522 -5.110009,0.007 -8.474489,1.25182 -11.464077,4.2414 -0.968436,0.96843 -1.901854,2.02438 -2.07427,2.34654 -0.272333,0.50887 -0.05649,0.4447 1.644597,-0.48891 2.813751,-1.54429 5.386093,-2.13437 9.299622,-2.13335 5.1839678,0.001 10.1069398,1.10415 17.0996958,3.83043 2.06023,0.80321 3.83836,1.46039 3.9514,1.46039 0.11305,0 0.27995,-0.37207 0.3709,-0.82682 z M -33.306849,150.0408 c 0.250206,-0.2502 0.227065,-2.00121 -0.03184,-2.40887 -0.502587,-0.79135 -7.628578,-3.11304 -12.372999,-4.03117 -8.726771,-1.68882 -15.31634,-0.60969 -20.01566,3.27782 -0.543092,0.44926 -0.989571,0.89301 -0.992191,0.98613 -0.003,0.0931 0.9397,-0.23904 2.094058,-0.73812 3.015142,-1.30358 5.383821,-1.7421 9.410542,-1.74224 3.798239,-1.1e-4 7.061811,0.45773 11.755498,1.64917 2.533645,0.64313 7.912754,2.3443 9.557277,3.02252 0.225885,0.0932 0.493773,0.0863 0.595312,-0.0152 z m -42.590031,-1.72675 c 0.28272,-1.08112 -0.25998,-1.47024 -3.59063,-2.57455 -12.73825,-4.2235 -23.0614,-4.2708 -29.52528,-0.13526 -1.05661,0.67601 -1.87493,1.27529 -1.81849,1.33173 0.0564,0.0564 0.86555,-0.23959 1.79802,-0.65785 8.21672,-3.68559 18.30092,-3.11441 30.3698,1.72016 1.21884,0.48825 2.30628,0.88772 2.41654,0.88772 0.11026,0 0.26778,-0.25739 0.35004,-0.57195 z M 9.0752988,124.55004 c 0.10613,-0.17172 0.11165,-1.07148 0.0123,-1.99948 -0.13339,-1.24565 -0.29669,-1.72171 -0.62389,-1.81877 -2.82271,-0.83748 -8.19314004,-1.70176 -12.476478,-2.00788 -5.803866,-0.41479 -11.0761438,0.25445 -15.1517128,1.92329 -1.878333,0.76912 -5.128562,2.55429 -4.677752,2.56921 0.08351,0.003 1.393198,-0.18239 2.910417,-0.41148 6.640893,-1.00272 18.9247298,-0.20371 28.9863858,1.88545 0.52237,0.10845 0.89901,0.0567 1.02077,-0.14034 z m -41.7931168,-1.34077 c 0.09408,-0.15224 0.09093,-0.85938 -0.007,-1.57146 -0.200916,-1.46082 0.113941,-1.30362 -3.969281,-1.9818 -8.795949,-1.46092 -17.010928,-1.49599 -23.01875,-0.0983 -2.38986,0.556 -7.14361,2.29686 -6.90998,2.53048 0.0686,0.0686 1.234741,-0.0258 2.59135,-0.20993 5.568021,-0.75565 17.419632,-0.28051 27.321267,1.09531 2.028436,0.28185 3.718052,0.51245 3.754704,0.51245 0.03666,0 0.143621,-0.12455 0.237702,-0.27677 z m -41.943992,-2.0035 c 0,-0.69827 -0.13742,-0.95986 -0.59532,-1.13326 -1.29743,-0.49131 -11.08105,-1.15321 -16.99947,-1.1501 -6.75749,0.004 -11.44418,0.45926 -15.34584,1.49202 l -2.38125,0.63033 3.83646,-0.10909 c 2.11006,-0.06 4.47671,-0.15852 5.25922,-0.21893 3.04681,-0.23523 23.4769,0.79164 25.76318,1.29492 0.37081,0.0816 0.46302,-0.0789 0.46302,-0.80589 z M 8.7859188,102.43003 c 0.26355,-0.6868 0.18246,-2.41904 -0.14709,-3.14233 -0.20069,-0.440459 -0.63778,-0.761597 -1.25677,-0.923398 -9.00916,-2.354911 -18.3880958,-4.24702 -21.0519548,-4.24702 -2.031847,0 -2.925252,0.47027 -6.212717,3.270268 -1.390759,1.184532 -2.884789,2.420541 -3.320071,2.7467 -0.455957,0.34164 0.386159,0.0456 1.986706,-0.698319 4.004102,-1.86118 4.996586,-2.143649 7.53199,-2.143649 2.62391,0 5.9868458,0.802539 12.5763468,3.001248 4.73357,1.57944 8.22712,2.55501 9.14964,2.55501 0.32083,0 0.65559,-0.18834 0.74392,-0.41851 z m -41.5815508,-2.42585 c 0.200036,-1.65524 -0.20207,-2.363818 -1.604256,-2.826939 -3.013789,-0.995429 -16.036451,-3.408569 -20.173881,-3.738279 -1.946101,-0.155081 -2.438929,-0.105781 -3.460779,0.346228 -1.191721,0.527161 -8.42518,5.250431 -8.42518,5.501442 0,0.0731 0.466119,-0.10481 1.035827,-0.395449 1.434971,-0.732063 5.728521,-2.313252 7.166251,-2.639111 0.654851,-0.14841 1.688721,-0.272761 2.297491,-0.27632 1.826289,-0.01069 7.80548,1.208699 13.709806,2.79591 4.882171,1.312438 8.640482,2.224708 9.165224,2.224708 0.09327,0 0.22355,-0.44649 0.289497,-0.99219 z M -75.07537,99.205071 c 0.21605,-0.216051 0.17517,-1.46205 -0.0601,-1.832128 -0.32466,-0.510681 -14.98022,-3.071112 -21.61904,-3.777002 -2.20805,-0.23478 -2.9085,-0.21268 -4.23333,0.133541 -1.39849,0.365458 -7.81047,3.476591 -8.43903,4.09466 -0.13031,0.128148 1.00077,-0.27786 2.51354,-0.90224 5.21809,-2.153721 5.29502,-2.155002 15.58278,-0.259342 11.35428,2.092182 15.98173,2.815971 16.25519,2.542511 z M 9.0413888,79.725601 c 0.20416,-1.7371 -0.0247,-3.02902 -0.59517,-3.35965 -0.23416,-0.13571 -3.30998,-1.66171 -6.83516,-3.39109 -12.1764738,-5.97354 -14.9577058,-6.457003 -18.6988578,-3.25043 -1.773168,1.5198 -7.567765,7.8918 -7.567765,8.32185 0,0.31653 1.083381,-0.49712 3.414022,-2.56402 1.077346,-0.95544 2.673942,-2.09451 3.547988,-2.53128 1.398417,-0.69879 1.863962,-0.79412 3.878338,-0.79412 2.639351,0 5.3440278,0.62783 8.7374118,2.02821 2.805674,1.15784 7.588193,3.56004 10.938893,5.49449 1.40342,0.81022 2.65538,1.47314 2.78212,1.47314 0.12675,0 0.30593,-0.6422 0.39818,-1.4271 z m -41.9129478,-1.94634 c 0.587621,-2.11592 0.263321,-2.99386 -1.382779,-3.74348 -8.921004,-4.06251 -15.601903,-6.26759 -20.904912,-6.89982 -2.544821,-0.30339 -2.609638,-0.29736 -3.704489,0.34426 -1.198952,0.70263 -7.839541,7.34769 -8.3976,8.40326 -0.185812,0.35145 0.915469,-0.56524 2.4473,-2.0371 3.36866,-3.23679 4.921661,-4.09627 7.72686,-4.2763 4.56682,-0.29308 11.879041,2.37928 21.14027,7.72601 1.405527,0.81145 2.610469,1.47536 2.677652,1.47536 0.06719,0 0.246147,-0.44649 0.397698,-0.99219 z m -42.231231,-1.83004 c 0.23988,-0.23987 0.2159,-1.46847 -0.0364,-1.86555 -0.42401,-0.6673 -8.08786,-3.89967 -13.01011,-5.48726 -4.06657,-1.3116 -7.26588,-1.97383 -10.45729,-2.164582 l -2.64583,-0.158141 -1.5875,1.075963 c -1.95564,1.32547 -7.0985,6.32659 -7.93636,7.71763 -0.39475,0.65538 1.7144,-1.04435 3.893,-3.13728 3.51695,-3.37868 5.00942,-4.07712 8.67356,-4.05901 4.11529,0.0203 9.41647,1.77757 18.20782,6.03552 5.07306,2.45705 4.6579,2.28394 4.89912,2.04271 z"
           id="path911"
           clip-path="none" />
      </g>
    </clipPath>
  </defs>
  <metadata
     id="metadata5">
    <rdf:RDF>
      <cc:Work
         rdf:about="">
        <dc:format>image/svg+xml</dc:format>
        <dc:type
           rdf:resource="http://purl.org/dc/dcmitype/StillImage" />
        <dc:title></dc:title>
      </cc:Work>
    </rdf:RDF>
  </metadata>
  <g
     id="layer1"
     transform="translate(-35.128602,-45.087396)">
    <path
       style="fill:#e6e6e6;stroke-width:0.999999"
       d="m 69.910827,53.98808 c -0.14797,-1.259003 0.01791,-2.195352 0.431365,-2.434984 0.169712,-0.09836 2.398985,-1.204361 4.953939,-2.457771 3.324465,-1.630917 6.75813,-3.010149 8.561148,-3.581512 2.983305,-0.945389 3.351383,-0.22288 4.991286,1.225688 1.26857,1.12056 5.478586,5.696055 5.478586,6.007743 -0.0024,0.02358 -0.0096,0.05551 -0.03713,0.07427 -0.257679,-0.08476 -1.084128,-0.714493 -2.430932,-1.90889 -0.780836,-0.692475 -2.447678,-1.822064 -3.081166,-2.138623 -1.01353,-0.506464 -1.502959,-0.799101 -2.962927,-0.799101 -1.912928,0 -3.238341,0.812704 -5.697775,1.827662 -2.033477,0.839171 -5.472895,2.750114 -7.901394,4.152152 -1.017158,0.587226 -1.712277,1.072208 -2.016406,1.067692 -0.09185,-0.0014 -0.221729,-0.465449 -0.288589,-1.034324 z"
       id="path863"
       clip-path="none" />
    <path
       style="fill:#e6e6e6;stroke-width:0.999999"
       d="m 59.527435,54.025534 c 0.02805,-1.208077 -0.146455,-1.713232 -1.162722,-2.04889 -2.184313,-0.72146 -11.803439,-2.199464 -14.802137,-2.438429 -1.410482,-0.112399 -1.803801,-0.04957 -2.544411,0.278035 -0.863727,0.382072 -5.889563,3.507298 -5.889563,3.689224 0,0.05298 0.0036,0.204048 0.416537,-0.0066 1.040028,-0.530579 4.341561,-2.028851 5.383589,-2.265024 0.474618,-0.107564 1.314264,-0.188658 1.755485,-0.191238 1.323645,-0.0077 5.711398,0.939257 9.990694,2.089629 3.162634,0.850188 4.271375,1.358346 6.466393,1.68149 0.132983,0.01958 0.201995,0.04063 0.265731,-0.05312 0.140451,-0.206587 0.110925,-0.326797 0.120404,-0.735077 z"
       id="path904"
       clip-path="none" />
  </g>
</svg>
